<svg xmlns="http://www.w3.org/2000/svg" width="65" height="65" viewBox="0 0 65 65" fill="none">
<g filter="url(#filter0_d_6_85)">
<path d="M26.807 50.9333C26.1807 50.9346 25.5737 50.7164 25.0914 50.3168C24.8199 50.0917 24.5956 49.8153 24.4311 49.5035C24.2666 49.1916 24.1653 48.8503 24.1329 48.4992C24.1006 48.1481 24.1378 47.794 24.2424 47.4573C24.3471 47.1206 24.5172 46.8079 24.7429 46.537L36.7524 32.1684L25.1718 17.7731C24.9491 17.4989 24.7828 17.1833 24.6825 16.8447C24.5822 16.506 24.5497 16.1508 24.5871 15.7996C24.6245 15.4483 24.7309 15.1079 24.9002 14.7979C25.0696 14.4879 25.2985 14.2145 25.5739 13.9933C25.8513 13.7492 26.1761 13.5651 26.528 13.4526C26.8798 13.34 27.2512 13.3014 27.6187 13.3392C27.9862 13.3769 28.3419 13.4902 28.6636 13.672C28.9852 13.8538 29.2658 14.1 29.4877 14.3954L42.4355 30.4796C42.8298 30.9592 43.0454 31.5609 43.0454 32.1818C43.0454 32.8027 42.8298 33.4044 42.4355 33.8841L29.032 49.9683C28.7631 50.2927 28.4215 50.5491 28.0349 50.7168C27.6483 50.8845 27.2277 50.9587 26.807 50.9333Z" fill="white"/>
</g>
<defs>
<filter id="filter0_d_6_85" x="16.1216" y="5.32513" width="34.9237" height="53.6131" filterUnits="userSpaceOnUse" color-interpolation-filters="sRGB">
<feFlood flood-opacity="0" result="BackgroundImageFix"/>
<feColorMatrix in="SourceAlpha" type="matrix" values="0 0 0 0 0 0 0 0 0 0 0 0 0 0 0 0 0 0 127 0" result="hardAlpha"/>
<feOffset/>
<feGaussianBlur stdDeviation="4"/>
<feComposite in2="hardAlpha" operator="out"/>
<feColorMatrix type="matrix" values="0 0 0 0 0 0 0 0 0 0 0 0 0 0 0 0 0 0 0.8 0"/>
<feBlend mode="normal" in2="BackgroundImageFix" result="effect1_dropShadow_6_85"/>
<feBlend mode="normal" in="SourceGraphic" in2="effect1_dropShadow_6_85" result="shape"/>
</filter>
</defs>
</svg>