<svg xmlns="http://www.w3.org/2000/svg" width="35" height="35" viewBox="0 0 35 35" fill="none">
<path d="M29.7646 8.58959L23.9312 5.96459H23.8583H23.6833H23.5083H23.1437H22.9979H22.8083H22.7354L17.5 8.31251L12.2646 5.96459H12.1917L12.0167 5.83334H11.8417H11.4771H11.3312H11.1417L5.30833 8.45834C5.01738 8.56983 4.76978 8.77157 4.60182 9.03401C4.43386 9.29644 4.35437 9.60578 4.375 9.91668V27.7083C4.3754 27.9523 4.43703 28.1924 4.55423 28.4064C4.67143 28.6204 4.84046 28.8016 5.04583 28.9333C5.28055 29.085 5.5539 29.1659 5.83333 29.1667C6.03968 29.1657 6.24347 29.121 6.43125 29.0354L11.6667 26.6875L16.9021 29.0354H16.975C17.1393 29.1123 17.3186 29.1521 17.5 29.1521C17.6814 29.1521 17.8606 29.1123 18.025 29.0354H18.0979L23.3333 26.6875L28.5687 29.0354C28.7565 29.121 28.9603 29.1657 29.1667 29.1667C29.4461 29.1659 29.7194 29.085 29.9542 28.9333C30.1595 28.8016 30.3286 28.6204 30.4458 28.4064C30.563 28.1924 30.6246 27.9523 30.625 27.7083V9.91668C30.6244 9.63615 30.5429 9.36174 30.3903 9.12636C30.2377 8.89098 30.0204 8.70461 29.7646 8.58959ZM13.125 9.55209L16.0417 10.85V25.4333L13.125 24.1354V9.55209ZM27.7083 25.4479L24.7917 24.15V9.56667L27.7083 10.8646V25.4479Z" fill="white"/>
</svg>