<svg xmlns="http://www.w3.org/2000/svg" width="200" height="200" viewBox="0 0 230 230" fill="none">
<g filter="url(#filter0_d_2_59)">
<path d="M115 57.5C117.542 57.5 119.979 56.4903 121.776 54.6931C123.574 52.8959 124.583 50.4583 124.583 47.9167V28.75C124.583 26.2083 123.574 23.7708 121.776 21.9736C119.979 20.1763 117.542 19.1667 115 19.1667C112.458 19.1667 110.021 20.1763 108.224 21.9736C106.426 23.7708 105.417 26.2083 105.417 28.75V47.9167C105.417 50.4583 106.426 52.8959 108.224 54.6931C110.021 56.4903 112.458 57.5 115 57.5Z" fill="#FDCE4E"/>
<path d="M201.25 105.417H182.083C179.542 105.417 177.104 106.426 175.307 108.224C173.51 110.021 172.5 112.458 172.5 115C172.5 117.542 173.51 119.979 175.307 121.776C177.104 123.574 179.542 124.583 182.083 124.583H201.25C203.792 124.583 206.229 123.574 208.026 121.776C209.824 119.979 210.833 117.542 210.833 115C210.833 112.458 209.824 110.021 208.026 108.224C206.229 106.426 203.792 105.417 201.25 105.417Z" fill="#FDCE4E"/>
<path d="M57.5 115C57.5 112.458 56.4903 110.021 54.6931 108.224C52.8958 106.426 50.4583 105.417 47.9166 105.417H28.75C26.2083 105.417 23.7708 106.426 21.9735 108.224C20.1763 110.021 19.1666 112.458 19.1666 115C19.1666 117.542 20.1763 119.979 21.9735 121.776C23.7708 123.574 26.2083 124.583 28.75 124.583H47.9166C50.4583 124.583 52.8958 123.574 54.6931 121.776C56.4903 119.979 57.5 117.542 57.5 115Z" fill="#FDCE4E"/>
<path d="M59.6082 47.9167C57.7401 46.1503 55.2467 45.1983 52.6767 45.2702C50.1067 45.3421 47.6705 46.432 45.904 48.3001C44.1376 50.1682 43.1856 52.6615 43.2575 55.2315C43.3293 57.8016 44.4192 60.2378 46.2873 62.0042L60.0873 75.3251C61.0134 76.2193 62.1102 76.9178 63.3121 77.3788C64.5141 77.8398 65.7966 78.054 67.0832 78.0084C68.3741 78.0035 69.6507 77.7378 70.8364 77.2273C72.0221 76.7168 73.0924 75.972 73.9832 75.0376C75.7681 73.242 76.7699 70.8131 76.7699 68.2813C76.7699 65.7495 75.7681 63.3206 73.9832 61.5251L59.6082 47.9167Z" fill="#FDCE4E"/>
<path d="M162.917 78.0083C165.384 77.9984 167.752 77.0373 169.529 75.3249L183.329 62.0041C185.012 60.2451 185.963 57.9112 185.988 55.4766C186.013 53.0419 185.111 50.689 183.464 48.8957C181.817 47.1024 179.549 46.0032 177.121 45.8214C174.693 45.6395 172.287 46.3886 170.392 47.9166L156.592 61.5249C154.807 63.3205 153.805 65.7494 153.805 68.2812C153.805 70.8129 154.807 73.2419 156.592 75.0374C158.251 76.7885 160.509 77.8493 162.917 78.0083Z" fill="#FDCE4E"/>
<path d="M115 172.5C112.458 172.5 110.021 173.51 108.224 175.307C106.426 177.104 105.417 179.542 105.417 182.083V201.25C105.417 203.792 106.426 206.229 108.224 208.026C110.021 209.824 112.458 210.833 115 210.833C117.542 210.833 119.979 209.824 121.776 208.026C123.574 206.229 124.583 203.792 124.583 201.25V182.083C124.583 179.542 123.574 177.104 121.776 175.307C119.979 173.51 117.542 172.5 115 172.5Z" fill="#FDCE4E"/>
<path d="M169.913 154.675C168.083 152.909 165.626 151.941 163.083 151.986C160.54 152.031 158.119 153.085 156.352 154.915C154.586 156.745 153.619 159.201 153.664 161.744C153.708 164.287 154.762 166.709 156.592 168.475L170.392 182.083C172.168 183.796 174.537 184.757 177.004 184.767C178.288 184.774 179.561 184.524 180.746 184.03C181.931 183.536 183.005 182.809 183.904 181.892C184.803 181.001 185.515 179.941 186.002 178.773C186.489 177.605 186.739 176.353 186.739 175.087C186.739 173.822 186.489 172.57 186.002 171.402C185.515 170.234 184.803 169.174 183.904 168.283L169.913 154.675Z" fill="#FDCE4E"/>
<path d="M60.0876 154.675L46.2876 167.996C45.3893 168.887 44.6764 169.947 44.1898 171.114C43.7033 172.282 43.4528 173.535 43.4528 174.8C43.4528 176.065 43.7033 177.318 44.1898 178.485C44.6764 179.653 45.3893 180.713 46.2876 181.604C47.1864 182.521 48.2604 183.248 49.4457 183.742C50.631 184.236 51.9035 184.487 53.1876 184.479C55.55 184.499 57.8366 183.646 59.6084 182.083L73.4084 168.762C75.2384 166.996 76.2917 164.575 76.3366 162.032C76.3816 159.489 75.4144 157.032 73.648 155.202C71.8815 153.372 69.4605 152.319 66.9174 152.274C64.3743 152.229 61.9175 153.196 60.0876 154.962V154.675Z" fill="#FDCE4E"/>
<path d="M115 76.6667C107.418 76.6667 100.007 78.9149 93.7031 83.127C87.3992 87.3391 82.486 93.326 79.5846 100.33C76.6832 107.335 75.9241 115.043 77.4032 122.478C78.8823 129.914 82.5332 136.745 87.8942 142.106C93.2552 147.467 100.086 151.118 107.522 152.597C114.957 154.076 122.665 153.317 129.67 150.415C136.674 147.514 142.661 142.601 146.873 136.297C151.085 129.993 153.333 122.582 153.333 115C153.333 104.833 149.295 95.0831 142.106 87.8942C134.917 80.7053 125.167 76.6667 115 76.6667Z" fill="#FDCE4E"/>
</g>
<defs>
<filter id="filter0_d_2_59" x="7.16663" y="7.16667" width="215.667" height="215.667" filterUnits="userSpaceOnUse" color-interpolation-filters="sRGB">
<feFlood flood-opacity="0" result="BackgroundImageFix"/>
<feColorMatrix in="SourceAlpha" type="matrix" values="0 0 0 0 0 0 0 0 0 0 0 0 0 0 0 0 0 0 127 0" result="hardAlpha"/>
<feOffset/>
<feGaussianBlur stdDeviation="6"/>
<feComposite in2="hardAlpha" operator="out"/>
<feColorMatrix type="matrix" values="0 0 0 0 0.992157 0 0 0 0 0.807843 0 0 0 0 0.305882 0 0 0 1 0"/>
<feBlend mode="normal" in2="BackgroundImageFix" result="effect1_dropShadow_2_59"/>
<feBlend mode="normal" in="SourceGraphic" in2="effect1_dropShadow_2_59" result="shape"/>
</filter>
</defs>
</svg>