<svg xmlns="http://www.w3.org/2000/svg" width="32" height="32" viewBox="0 0 32 32" fill="none">
<path d="M16 8.00002C16.3536 8.00002 16.6928 7.85954 16.9428 7.6095C17.1929 7.35945 17.3333 7.02031 17.3333 6.66669V4.00002C17.3333 3.6464 17.1929 3.30726 16.9428 3.05721C16.6928 2.80716 16.3536 2.66669 16 2.66669C15.6464 2.66669 15.3072 2.80716 15.0572 3.05721C14.8071 3.30726 14.6667 3.6464 14.6667 4.00002V6.66669C14.6667 7.02031 14.8071 7.35945 15.0572 7.6095C15.3072 7.85954 15.6464 8.00002 16 8.00002Z" fill="#FDCE4E"/>
<path d="M28 14.6667H25.3333C24.9797 14.6667 24.6406 14.8072 24.3905 15.0572C24.1405 15.3073 24 15.6464 24 16C24 16.3536 24.1405 16.6928 24.3905 16.9428C24.6406 17.1929 24.9797 17.3334 25.3333 17.3334H28C28.3536 17.3334 28.6928 17.1929 28.9428 16.9428C29.1929 16.6928 29.3333 16.3536 29.3333 16C29.3333 15.6464 29.1929 15.3073 28.9428 15.0572C28.6928 14.8072 28.3536 14.6667 28 14.6667Z" fill="#FDCE4E"/>
<path d="M8 16C8 15.6464 7.85953 15.3073 7.60948 15.0572C7.35943 14.8072 7.02029 14.6667 6.66667 14.6667H4C3.64638 14.6667 3.30724 14.8072 3.05719 15.0572C2.80714 15.3073 2.66667 15.6464 2.66667 16C2.66667 16.3536 2.80714 16.6928 3.05719 16.9428C3.30724 17.1929 3.64638 17.3334 4 17.3334H6.66667C7.02029 17.3334 7.35943 17.1929 7.60948 16.9428C7.85953 16.6928 8 16.3536 8 16Z" fill="#FDCE4E"/>
<path d="M8.29334 6.66666C8.03342 6.42089 7.68653 6.28844 7.32896 6.29844C6.97139 6.30844 6.63244 6.46008 6.38667 6.71999C6.1409 6.9799 6.00845 7.3268 6.01845 7.68437C6.02846 8.04194 6.18009 8.38089 6.44 8.62666L8.36 10.48C8.48885 10.6044 8.64144 10.7016 8.80867 10.7657C8.9759 10.8299 9.15434 10.8597 9.33334 10.8533C9.51294 10.8526 9.69056 10.8157 9.85553 10.7446C10.0205 10.6736 10.1694 10.57 10.2933 10.44C10.5417 10.1902 10.6811 9.85224 10.6811 9.49999C10.6811 9.14774 10.5417 8.80981 10.2933 8.55999L8.29334 6.66666Z" fill="#FDCE4E"/>
<path d="M22.6666 10.8534C23.0099 10.852 23.3395 10.7183 23.5866 10.48L25.5066 8.6267C25.7409 8.38196 25.8732 8.05726 25.8766 7.71852C25.8801 7.37979 25.7546 7.05242 25.5254 6.80292C25.2963 6.55342 24.9808 6.40049 24.643 6.37519C24.3052 6.34989 23.9704 6.45411 23.7066 6.6667L21.7866 8.56003C21.5383 8.80985 21.3989 9.14778 21.3989 9.50003C21.3989 9.85228 21.5383 10.1902 21.7866 10.44C22.0175 10.6837 22.3317 10.8313 22.6666 10.8534Z" fill="#FDCE4E"/>
<path d="M16 24C15.6464 24 15.3072 24.1405 15.0572 24.3905C14.8071 24.6406 14.6667 24.9797 14.6667 25.3333V28C14.6667 28.3536 14.8071 28.6928 15.0572 28.9428C15.3072 29.1929 15.6464 29.3333 16 29.3333C16.3536 29.3333 16.6928 29.1929 16.9428 28.9428C17.1929 28.6928 17.3333 28.3536 17.3333 28V25.3333C17.3333 24.9797 17.1929 24.6406 16.9428 24.3905C16.6928 24.1405 16.3536 24 16 24Z" fill="#FDCE4E"/>
<path d="M23.64 21.52C23.3854 21.2743 23.0436 21.1397 22.6898 21.146C22.336 21.1522 21.9991 21.2988 21.7534 21.5534C21.5076 21.808 21.373 22.1498 21.3793 22.5036C21.3855 22.8574 21.5321 23.1943 21.7867 23.44L23.7067 25.3334C23.9539 25.5716 24.2834 25.7053 24.6267 25.7067C24.8053 25.7077 24.9824 25.6729 25.1473 25.6042C25.3122 25.5354 25.4616 25.4343 25.5867 25.3067C25.7117 25.1828 25.8109 25.0353 25.8785 24.8728C25.9462 24.7103 25.9811 24.5361 25.9811 24.36C25.9811 24.184 25.9462 24.0097 25.8785 23.8473C25.8109 23.6848 25.7117 23.5373 25.5867 23.4134L23.64 21.52Z" fill="#FDCE4E"/>
<path d="M8.35999 21.52L6.43999 23.3733C6.31502 23.4973 6.21583 23.6448 6.14814 23.8072C6.08044 23.9697 6.04559 24.144 6.04559 24.32C6.04559 24.496 6.08044 24.6703 6.14814 24.8328C6.21583 24.9953 6.31502 25.1427 6.43999 25.2667C6.56505 25.3943 6.71447 25.4954 6.87938 25.5641C7.0443 25.6329 7.22134 25.6677 7.39999 25.6667C7.72868 25.6695 8.04681 25.5508 8.29332 25.3333L10.2133 23.48C10.4679 23.2342 10.6145 22.8974 10.6207 22.5436C10.627 22.1898 10.4924 21.848 10.2467 21.5933C10.0009 21.3387 9.66405 21.1922 9.31023 21.1859C8.95641 21.1797 8.6146 21.3142 8.35999 21.56V21.52Z" fill="#FDCE4E"/>
<path d="M16 10.6667C14.9452 10.6667 13.914 10.9795 13.037 11.5655C12.1599 12.1516 11.4763 12.9845 11.0726 13.959C10.669 14.9336 10.5634 16.0059 10.7691 17.0405C10.9749 18.0751 11.4829 19.0254 12.2288 19.7713C12.9746 20.5171 13.925 21.0251 14.9595 21.2309C15.9941 21.4367 17.0664 21.331 18.041 20.9274C19.0155 20.5237 19.8485 19.8401 20.4345 18.9631C21.0205 18.086 21.3333 17.0549 21.3333 16C21.3333 14.5855 20.7714 13.229 19.7712 12.2288C18.771 11.2286 17.4145 10.6667 16 10.6667Z" fill="#FDCE4E"/>
</svg>