<svg width="30" height="30" viewBox="0 0 38 38" fill="none" xmlns="http://www.w3.org/2000/svg">
<path d="M19 34.8334C17.3384 34.8334 15.719 34.3106 14.371 33.339C13.0231 32.3675 12.015 30.9965 11.4896 29.4202C10.9642 27.8439 10.948 26.1422 11.4434 24.5562C11.9389 22.9702 12.9207 21.5803 14.25 20.5834V7.91669C14.25 6.65691 14.7504 5.44873 15.6412 4.55793C16.532 3.66713 17.7402 3.16669 19 3.16669C20.2598 3.16669 21.468 3.66713 22.3588 4.55793C23.2496 5.44873 23.75 6.65691 23.75 7.91669V20.5834C25.0793 21.5803 26.0611 22.9702 26.5566 24.5562C27.052 26.1422 27.0358 27.8439 26.5104 29.4202C25.985 30.9965 24.9769 32.3675 23.629 33.339C22.281 34.3106 20.6616 34.8334 19 34.8334ZM20.5833 15.105V7.91669C20.5866 7.71271 20.5475 7.51027 20.4685 7.32221C20.3895 7.13414 20.2722 6.96455 20.1242 6.82419C19.9789 6.67171 19.8046 6.54976 19.6115 6.46548C19.4185 6.3812 19.2106 6.33628 19 6.33335C18.5801 6.33335 18.1773 6.50017 17.8804 6.7971C17.5835 7.09403 17.4167 7.49676 17.4167 7.91669V15.105H20.5833Z" fill="white"/>
</svg>
