<svg width="30" height="30" viewBox="0 0 38 38" fill="none" xmlns="http://www.w3.org/2000/svg">
<path d="M19 3.16669C16.9207 3.16669 14.8618 3.57623 12.9408 4.37193C11.0199 5.16763 9.27441 6.3339 7.80415 7.80416C4.83482 10.7735 3.16667 14.8008 3.16667 19C3.16667 19.4199 3.33349 19.8227 3.63042 20.1196C3.92735 20.4165 4.33008 20.5834 4.75001 20.5834H17.4167V30.0834C17.4167 31.3431 17.9171 32.5513 18.8079 33.4421C19.6987 34.3329 20.9069 34.8334 22.1667 34.8334C23.4264 34.8334 24.6346 34.3329 25.5254 33.4421C26.4162 32.5513 26.9167 31.3431 26.9167 30.0834C26.9167 29.6634 26.7499 29.2607 26.4529 28.9638C26.156 28.6668 25.7533 28.5 25.3333 28.5C24.9134 28.5 24.5107 28.6668 24.2138 28.9638C23.9168 29.2607 23.75 29.6634 23.75 30.0834C23.75 30.5033 23.5832 30.906 23.2863 31.2029C22.9893 31.4999 22.5866 31.6667 22.1667 31.6667C21.7467 31.6667 21.344 31.4999 21.0471 31.2029C20.7502 30.906 20.5833 30.5033 20.5833 30.0834V20.5834H33.25C33.6699 20.5834 34.0727 20.4165 34.3696 20.1196C34.6665 19.8227 34.8333 19.4199 34.8333 19C34.8333 16.9208 34.4238 14.8619 33.6281 12.9409C32.8324 11.0199 31.6661 9.27442 30.1959 7.80416C28.7256 6.3339 26.9801 5.16763 25.0592 4.37193C23.1382 3.57623 21.0793 3.16669 19 3.16669ZM6.42834 17.4167C6.80623 14.3486 8.29302 11.5246 10.6086 9.47676C12.9242 7.42887 15.9088 6.29845 19 6.29845C22.0913 6.29845 25.0758 7.42887 27.3914 9.47676C29.707 11.5246 31.1938 14.3486 31.5717 17.4167H6.42834Z" fill="white"/>
</svg>
